<mxfile host="app.diagrams.net" modified="2023-02-10T15:12:52.928Z" agent="5.0 (Windows NT 10.0; Win64; x64) AppleWebKit/537.36 (KHTML, like Gecko) Chrome/109.0.0.0 Safari/537.36" etag="jnrs5SJrZc3LDwOmzjA1" version="20.8.20" type="github">
  <diagram name="Page-1" id="-J_leRDVVXTCaDoyGeOd">
    <mxGraphModel dx="118" dy="71" grid="0" gridSize="2" guides="1" tooltips="1" connect="1" arrows="1" fold="1" page="1" pageScale="1" pageWidth="850" pageHeight="1100" background="#ffffff" math="0" shadow="0">
      <root>
        <mxCell id="0" />
        <mxCell id="1" parent="0" />
        <mxCell id="GdRpbqoHhdwrMtE_hi2a-1" value="" style="whiteSpace=wrap;html=1;aspect=fixed;" vertex="1" parent="1">
          <mxGeometry x="360" y="240" width="8" height="8" as="geometry" />
        </mxCell>
        <mxCell id="GdRpbqoHhdwrMtE_hi2a-3" value="" style="whiteSpace=wrap;html=1;aspect=fixed;" vertex="1" parent="1">
          <mxGeometry x="360" y="248" width="8" height="8" as="geometry" />
        </mxCell>
        <mxCell id="GdRpbqoHhdwrMtE_hi2a-4" value="" style="whiteSpace=wrap;html=1;aspect=fixed;" vertex="1" parent="1">
          <mxGeometry x="368" y="240" width="8" height="8" as="geometry" />
        </mxCell>
        <mxCell id="GdRpbqoHhdwrMtE_hi2a-5" value="" style="whiteSpace=wrap;html=1;aspect=fixed;" vertex="1" parent="1">
          <mxGeometry x="368" y="248" width="8" height="8" as="geometry" />
        </mxCell>
        <mxCell id="GdRpbqoHhdwrMtE_hi2a-6" value="" style="whiteSpace=wrap;html=1;aspect=fixed;" vertex="1" parent="1">
          <mxGeometry x="360" y="256" width="8" height="8" as="geometry" />
        </mxCell>
        <mxCell id="GdRpbqoHhdwrMtE_hi2a-7" value="" style="whiteSpace=wrap;html=1;aspect=fixed;" vertex="1" parent="1">
          <mxGeometry x="376" y="240" width="8" height="8" as="geometry" />
        </mxCell>
        <mxCell id="GdRpbqoHhdwrMtE_hi2a-8" value="" style="whiteSpace=wrap;html=1;aspect=fixed;" vertex="1" parent="1">
          <mxGeometry x="376" y="248" width="8" height="8" as="geometry" />
        </mxCell>
        <mxCell id="GdRpbqoHhdwrMtE_hi2a-9" value="" style="whiteSpace=wrap;html=1;aspect=fixed;" vertex="1" parent="1">
          <mxGeometry x="376" y="256" width="8" height="8" as="geometry" />
        </mxCell>
        <mxCell id="GdRpbqoHhdwrMtE_hi2a-11" value="" style="whiteSpace=wrap;html=1;aspect=fixed;" vertex="1" parent="1">
          <mxGeometry x="368" y="256" width="8" height="8" as="geometry" />
        </mxCell>
        <mxCell id="GdRpbqoHhdwrMtE_hi2a-12" value="" style="whiteSpace=wrap;html=1;aspect=fixed;" vertex="1" parent="1">
          <mxGeometry x="384" y="240" width="8" height="8" as="geometry" />
        </mxCell>
        <mxCell id="GdRpbqoHhdwrMtE_hi2a-13" value="" style="whiteSpace=wrap;html=1;aspect=fixed;" vertex="1" parent="1">
          <mxGeometry x="384" y="248" width="8" height="8" as="geometry" />
        </mxCell>
        <mxCell id="GdRpbqoHhdwrMtE_hi2a-14" value="" style="whiteSpace=wrap;html=1;aspect=fixed;" vertex="1" parent="1">
          <mxGeometry x="392" y="240" width="8" height="8" as="geometry" />
        </mxCell>
        <mxCell id="GdRpbqoHhdwrMtE_hi2a-15" value="" style="whiteSpace=wrap;html=1;aspect=fixed;" vertex="1" parent="1">
          <mxGeometry x="392" y="248" width="8" height="8" as="geometry" />
        </mxCell>
        <mxCell id="GdRpbqoHhdwrMtE_hi2a-16" value="" style="whiteSpace=wrap;html=1;aspect=fixed;" vertex="1" parent="1">
          <mxGeometry x="384" y="256" width="8" height="8" as="geometry" />
        </mxCell>
        <mxCell id="GdRpbqoHhdwrMtE_hi2a-17" value="" style="whiteSpace=wrap;html=1;aspect=fixed;" vertex="1" parent="1">
          <mxGeometry x="400" y="240" width="8" height="8" as="geometry" />
        </mxCell>
        <mxCell id="GdRpbqoHhdwrMtE_hi2a-18" value="" style="whiteSpace=wrap;html=1;aspect=fixed;" vertex="1" parent="1">
          <mxGeometry x="400" y="248" width="8" height="8" as="geometry" />
        </mxCell>
        <mxCell id="GdRpbqoHhdwrMtE_hi2a-19" value="" style="whiteSpace=wrap;html=1;aspect=fixed;" vertex="1" parent="1">
          <mxGeometry x="400" y="256" width="8" height="8" as="geometry" />
        </mxCell>
        <mxCell id="GdRpbqoHhdwrMtE_hi2a-20" value="" style="whiteSpace=wrap;html=1;aspect=fixed;" vertex="1" parent="1">
          <mxGeometry x="392" y="256" width="8" height="8" as="geometry" />
        </mxCell>
        <mxCell id="GdRpbqoHhdwrMtE_hi2a-21" value="" style="whiteSpace=wrap;html=1;aspect=fixed;" vertex="1" parent="1">
          <mxGeometry x="360" y="264" width="8" height="8" as="geometry" />
        </mxCell>
        <mxCell id="GdRpbqoHhdwrMtE_hi2a-22" value="" style="whiteSpace=wrap;html=1;aspect=fixed;" vertex="1" parent="1">
          <mxGeometry x="360" y="272" width="8" height="8" as="geometry" />
        </mxCell>
        <mxCell id="GdRpbqoHhdwrMtE_hi2a-23" value="" style="whiteSpace=wrap;html=1;aspect=fixed;" vertex="1" parent="1">
          <mxGeometry x="368" y="264" width="8" height="8" as="geometry" />
        </mxCell>
        <mxCell id="GdRpbqoHhdwrMtE_hi2a-24" value="" style="whiteSpace=wrap;html=1;aspect=fixed;" vertex="1" parent="1">
          <mxGeometry x="368" y="272" width="8" height="8" as="geometry" />
        </mxCell>
        <mxCell id="GdRpbqoHhdwrMtE_hi2a-25" value="" style="whiteSpace=wrap;html=1;aspect=fixed;" vertex="1" parent="1">
          <mxGeometry x="360" y="280" width="8" height="8" as="geometry" />
        </mxCell>
        <mxCell id="GdRpbqoHhdwrMtE_hi2a-26" value="" style="whiteSpace=wrap;html=1;aspect=fixed;" vertex="1" parent="1">
          <mxGeometry x="376" y="264" width="8" height="8" as="geometry" />
        </mxCell>
        <mxCell id="GdRpbqoHhdwrMtE_hi2a-27" value="" style="whiteSpace=wrap;html=1;aspect=fixed;" vertex="1" parent="1">
          <mxGeometry x="376" y="272" width="8" height="8" as="geometry" />
        </mxCell>
        <mxCell id="GdRpbqoHhdwrMtE_hi2a-28" value="" style="whiteSpace=wrap;html=1;aspect=fixed;" vertex="1" parent="1">
          <mxGeometry x="376" y="280" width="8" height="8" as="geometry" />
        </mxCell>
        <mxCell id="GdRpbqoHhdwrMtE_hi2a-29" value="" style="whiteSpace=wrap;html=1;aspect=fixed;" vertex="1" parent="1">
          <mxGeometry x="368" y="280" width="8" height="8" as="geometry" />
        </mxCell>
        <mxCell id="GdRpbqoHhdwrMtE_hi2a-30" value="" style="whiteSpace=wrap;html=1;aspect=fixed;fillColor=#00ff62;" vertex="1" parent="1">
          <mxGeometry x="384" y="264" width="8" height="8" as="geometry" />
        </mxCell>
        <mxCell id="GdRpbqoHhdwrMtE_hi2a-31" value="" style="whiteSpace=wrap;html=1;aspect=fixed;" vertex="1" parent="1">
          <mxGeometry x="384" y="272" width="8" height="8" as="geometry" />
        </mxCell>
        <mxCell id="GdRpbqoHhdwrMtE_hi2a-32" value="" style="whiteSpace=wrap;html=1;aspect=fixed;" vertex="1" parent="1">
          <mxGeometry x="392" y="264" width="8" height="8" as="geometry" />
        </mxCell>
        <mxCell id="GdRpbqoHhdwrMtE_hi2a-33" value="" style="whiteSpace=wrap;html=1;aspect=fixed;" vertex="1" parent="1">
          <mxGeometry x="392" y="272" width="8" height="8" as="geometry" />
        </mxCell>
        <mxCell id="GdRpbqoHhdwrMtE_hi2a-34" value="" style="whiteSpace=wrap;html=1;aspect=fixed;" vertex="1" parent="1">
          <mxGeometry x="384" y="280" width="8" height="8" as="geometry" />
        </mxCell>
        <mxCell id="GdRpbqoHhdwrMtE_hi2a-35" value="" style="whiteSpace=wrap;html=1;aspect=fixed;" vertex="1" parent="1">
          <mxGeometry x="400" y="264" width="8" height="8" as="geometry" />
        </mxCell>
        <mxCell id="GdRpbqoHhdwrMtE_hi2a-36" value="" style="whiteSpace=wrap;html=1;aspect=fixed;" vertex="1" parent="1">
          <mxGeometry x="400" y="272" width="8" height="8" as="geometry" />
        </mxCell>
        <mxCell id="GdRpbqoHhdwrMtE_hi2a-37" value="" style="whiteSpace=wrap;html=1;aspect=fixed;" vertex="1" parent="1">
          <mxGeometry x="400" y="280" width="8" height="8" as="geometry" />
        </mxCell>
        <mxCell id="GdRpbqoHhdwrMtE_hi2a-38" value="" style="whiteSpace=wrap;html=1;aspect=fixed;" vertex="1" parent="1">
          <mxGeometry x="392" y="280" width="8" height="8" as="geometry" />
        </mxCell>
        <mxCell id="GdRpbqoHhdwrMtE_hi2a-51" value="" style="whiteSpace=wrap;html=1;aspect=fixed;fillColor=#ff0000;" vertex="1" parent="1">
          <mxGeometry x="360" y="288" width="8" height="8" as="geometry" />
        </mxCell>
        <mxCell id="GdRpbqoHhdwrMtE_hi2a-52" value="" style="whiteSpace=wrap;html=1;aspect=fixed;" vertex="1" parent="1">
          <mxGeometry x="368" y="288" width="8" height="8" as="geometry" />
        </mxCell>
        <mxCell id="GdRpbqoHhdwrMtE_hi2a-54" value="" style="whiteSpace=wrap;html=1;aspect=fixed;" vertex="1" parent="1">
          <mxGeometry x="376" y="288" width="8" height="8" as="geometry" />
        </mxCell>
        <mxCell id="GdRpbqoHhdwrMtE_hi2a-57" value="" style="whiteSpace=wrap;html=1;aspect=fixed;" vertex="1" parent="1">
          <mxGeometry x="384" y="288" width="8" height="8" as="geometry" />
        </mxCell>
        <mxCell id="GdRpbqoHhdwrMtE_hi2a-58" value="" style="whiteSpace=wrap;html=1;aspect=fixed;" vertex="1" parent="1">
          <mxGeometry x="392" y="288" width="8" height="8" as="geometry" />
        </mxCell>
        <mxCell id="GdRpbqoHhdwrMtE_hi2a-60" value="" style="whiteSpace=wrap;html=1;aspect=fixed;" vertex="1" parent="1">
          <mxGeometry x="400" y="288" width="8" height="8" as="geometry" />
        </mxCell>
        <mxCell id="GdRpbqoHhdwrMtE_hi2a-115" value="" style="whiteSpace=wrap;html=1;aspect=fixed;" vertex="1" parent="1">
          <mxGeometry x="408" y="240" width="8" height="8" as="geometry" />
        </mxCell>
        <mxCell id="GdRpbqoHhdwrMtE_hi2a-116" value="" style="whiteSpace=wrap;html=1;aspect=fixed;" vertex="1" parent="1">
          <mxGeometry x="408" y="248" width="8" height="8" as="geometry" />
        </mxCell>
        <mxCell id="GdRpbqoHhdwrMtE_hi2a-117" value="" style="whiteSpace=wrap;html=1;aspect=fixed;" vertex="1" parent="1">
          <mxGeometry x="408" y="256" width="8" height="8" as="geometry" />
        </mxCell>
        <mxCell id="GdRpbqoHhdwrMtE_hi2a-127" value="" style="whiteSpace=wrap;html=1;aspect=fixed;" vertex="1" parent="1">
          <mxGeometry x="408" y="264" width="8" height="8" as="geometry" />
        </mxCell>
        <mxCell id="GdRpbqoHhdwrMtE_hi2a-128" value="" style="whiteSpace=wrap;html=1;aspect=fixed;" vertex="1" parent="1">
          <mxGeometry x="408" y="272" width="8" height="8" as="geometry" />
        </mxCell>
        <mxCell id="GdRpbqoHhdwrMtE_hi2a-129" value="" style="whiteSpace=wrap;html=1;aspect=fixed;" vertex="1" parent="1">
          <mxGeometry x="408" y="280" width="8" height="8" as="geometry" />
        </mxCell>
        <mxCell id="GdRpbqoHhdwrMtE_hi2a-139" value="" style="whiteSpace=wrap;html=1;aspect=fixed;" vertex="1" parent="1">
          <mxGeometry x="408" y="288" width="8" height="8" as="geometry" />
        </mxCell>
        <mxCell id="GdRpbqoHhdwrMtE_hi2a-158" value="" style="whiteSpace=wrap;html=1;aspect=fixed;" vertex="1" parent="1">
          <mxGeometry x="392" y="272" width="8" height="8" as="geometry" />
        </mxCell>
        <mxCell id="GdRpbqoHhdwrMtE_hi2a-159" value="" style="whiteSpace=wrap;html=1;aspect=fixed;" vertex="1" parent="1">
          <mxGeometry x="360" y="280" width="8" height="8" as="geometry" />
        </mxCell>
        <mxCell id="GdRpbqoHhdwrMtE_hi2a-160" value="" style="whiteSpace=wrap;html=1;aspect=fixed;" vertex="1" parent="1">
          <mxGeometry x="392" y="272" width="8" height="8" as="geometry" />
        </mxCell>
        <mxCell id="GdRpbqoHhdwrMtE_hi2a-161" value="" style="whiteSpace=wrap;html=1;aspect=fixed;" vertex="1" parent="1">
          <mxGeometry x="360" y="280" width="8" height="8" as="geometry" />
        </mxCell>
        <mxCell id="GdRpbqoHhdwrMtE_hi2a-162" value="" style="whiteSpace=wrap;html=1;aspect=fixed;" vertex="1" parent="1">
          <mxGeometry x="368" y="280" width="8" height="8" as="geometry" />
        </mxCell>
        <mxCell id="GdRpbqoHhdwrMtE_hi2a-163" value="" style="whiteSpace=wrap;html=1;aspect=fixed;fillColor=#FFFFFF;" vertex="1" parent="1">
          <mxGeometry x="392" y="272" width="8" height="8" as="geometry" />
        </mxCell>
        <mxCell id="GdRpbqoHhdwrMtE_hi2a-164" value="" style="whiteSpace=wrap;html=1;aspect=fixed;fillColor=#ff0000;" vertex="1" parent="1">
          <mxGeometry x="360" y="280" width="8" height="8" as="geometry" />
        </mxCell>
        <mxCell id="GdRpbqoHhdwrMtE_hi2a-165" value="" style="whiteSpace=wrap;html=1;aspect=fixed;fillColor=#ff0000;" vertex="1" parent="1">
          <mxGeometry x="368" y="280" width="8" height="8" as="geometry" />
        </mxCell>
        <mxCell id="GdRpbqoHhdwrMtE_hi2a-166" value="" style="whiteSpace=wrap;html=1;aspect=fixed;fillColor=#ff0000;" vertex="1" parent="1">
          <mxGeometry x="368" y="288" width="8" height="8" as="geometry" />
        </mxCell>
      </root>
    </mxGraphModel>
  </diagram>
</mxfile>
